<?xml version="1.0" encoding="utf-8"?>
<svg  xmlns="http://www.w3.org/2000/svg" viewBox="0 0 177.4 131.8">
    <defs>
        <style type="text/css">
            .st0{fill:#ffffff;}
            .st1{fill:#012249;}
        </style>
    </defs>
    <g>
        <path class="st0" d="M40.3,66.2l20.3,64.5H49.5L44,113.3H16.3L13.2,124c-1.2,4-4.8,6.7-8.9,6.7H0l22.7-73.6h14.6 M19.1,103.7H41 L30.5,70.3H29L19.1,103.7z"/>
        <path class="st0" d="M62.5,106.6V82.3c0-18.4,8-25.3,28.6-25.3s28.6,6.8,28.6,25.3v24.3c0,18.4-8,25.2-28.6,25.2 S62.5,125,62.5,106.6z M73.9,82.1v24.7c0,11.2,3.9,15.1,17.2,15.1s17.2-3.8,17.2-15.1V82.1c0-11.3-3.9-15.1-17.2-15.1 S73.9,70.8,73.9,82.1L73.9,82.1z"/>
        <path class="st1" d="M80.6,47.3h33.5c0.7-0.7,7.5-3.7,7.5-8.1c0,0-5.3-11.2-5.3-9c0,4.7-3.8,8.5-8.5,8.5c-8.4,0-8.2,0-18.7,0 C84.4,38.8,80.6,42.6,80.6,47.3C80.6,47.3,80.6,47.3,80.6,47.3L80.6,47.3z"/>
        <path class="st0" d="M123.4,0v38.8c0,4.7-3.8,8.5-8.5,8.5c0,0,0,0,0,0h-7.1c0,0,7.2-0.5,7.1-10.8c-0.1-6.8,0-19.5,0-28 C114.9,3.8,118.7,0,123.4,0z"/>
        <path class="st1" d="M130,4.5V38c0.7,0.7,3.7,7.5,8.1,7.5c0,0,11.2-5.3,9-5.3c-4.7,0-8.5-3.8-8.5-8.5c0-8.4,0-8.2,0-18.7 C138.6,8.4,134.8,4.5,130,4.5C130.1,4.5,130.1,4.5,130,4.5L130,4.5z"/>
        <path class="st0" d="M177.4,47.3h-38.8c-4.7,0-8.5-3.8-8.5-8.5c0,0,0,0,0,0v-7.1c0,0,0.5,7.2,10.8,7.1c6.8-0.1,19.5,0,28,0 C173.5,38.8,177.4,42.6,177.4,47.3z"/>
        <path class="st1" d="M172.8,54h-33.5c-0.7,0.7-7.5,3.7-7.5,8.1c0,0,5.3,11.2,5.3,9c0-4.7,3.8-8.5,8.5-8.5h18.7 C169,62.5,172.8,58.7,172.8,54C172.8,54,172.8,54,172.8,54z"/>
        <path class="st0" d="M130,101.3V62.5c0-4.7,3.8-8.5,8.5-8.5c0,0,0,0,0,0h7.1c0,0-7.2,0.5-7.2,10.8c0.1,6.8,0,19.5,0,28 C138.5,97.5,134.7,101.3,130,101.3L130,101.3z"/>
    </g>
</svg>
