<?xml version="1.0" encoding="utf-8"?>
<!-- Generator: Adobe Illustrator 16.0.3, SVG Export Plug-In . SVG Version: 6.00 Build 0)  -->
<!DOCTYPE svg PUBLIC "-//W3C//DTD SVG 1.1//EN" "http://www.w3.org/Graphics/SVG/1.1/DTD/svg11.dtd">
<svg version="1.1" id="Layer_1" xmlns="http://www.w3.org/2000/svg" xmlns:xlink="http://www.w3.org/1999/xlink" x="0px" y="0px"
	 viewBox="0 0 373.333 198.667" enable-background="new 0 0 373.333 198.667"
	 xml:space="preserve">
<g>
	<path fill-rule="evenodd" clip-rule="evenodd" fill="#FFFFFF" d="M7.604,161.613c3.073-12.327,9.01-23.54,13.817-35.182
		c13.633-33.02,27.546-65.926,41.356-98.874c2.175-5.19,5.529-9.285,11.02-11.162c8.344-2.852,18.821-0.207,23.216,10.299
		c17.887,42.758,35.81,85.5,53.74,128.238c2.938,7.002,2.656,13.641-2.266,19.644c-8.794,10.724-25.902,8.117-31.176-4.714
		c-2.783-6.768-5.472-13.575-8.159-20.382c-0.33-0.836-0.752-1.107-1.637-1.105c-18.25,0.023-36.5,0.024-54.751-0.003
		c-0.896-0.002-1.316,0.29-1.644,1.104c-2.735,6.786-5.483,13.569-8.282,20.331c-4.311,10.418-17.019,14.673-26.446,8.791
		c-4.879-3.045-7.735-7.518-8.546-13.25c-0.043-0.305-0.161-0.599-0.243-0.898C7.604,163.504,7.604,162.559,7.604,161.613z
		 M65.213,115.027c10.102,0,19.97,0,29.996,0c-4.94-12.296-9.831-24.466-14.841-36.935C75.25,90.567,70.257,102.733,65.213,115.027z
		"/>
	<path fill-rule="evenodd" clip-rule="evenodd" fill="#FFFFFF" d="M213.866,15.963c39.349,0.061,73.243,27.514,81.197,66.201
		c9.229,44.886-19.029,87.264-61.645,97.338c-27.31,6.455-51.962,0.324-73.665-17.527c-0.992-0.816-1.509-1.726-1.766-3.017
		c-0.396-1.993-0.984-3.982-1.764-5.857c-8.124-19.505-16.272-38.997-24.509-58.453c-0.842-1.989-0.574-3.858-0.333-5.778
		c1.894-15.065,7.378-28.696,16.747-40.658c13.181-16.83,30.354-27.2,51.398-30.979c4.712-0.846,9.537-1.056,14.309-1.559
		C213.845,15.771,213.855,15.867,213.866,15.963z M213.795,147.882c26.96-0.014,48.827-21.859,48.93-48.883
		c0.1-26.904-21.966-48.978-48.956-48.973c-27.006,0.005-48.934,21.971-48.914,49C164.874,125.959,186.848,147.897,213.795,147.882z
		"/>
	<path fill-rule="evenodd" clip-rule="evenodd" fill="#FFFFFF" d="M366.688,98.886c-0.742,34.548-12.465,64.659-36.41,89.818
		c-3.129,3.287-8.182,3.73-11.851,1.13c-4.122-2.922-5.522-7.868-3.355-12.063c0.408-0.791,0.966-1.539,1.583-2.186
		c14.718-15.387,24.209-33.531,28.714-54.312c1.904-8.785,2.711-17.68,2.289-26.652c-1.313-27.871-11.577-51.989-30.623-72.362
		c-2.565-2.743-3.835-5.801-2.639-9.479c1.219-3.748,3.905-6.066,7.745-6.863c3.334-0.694,6.093,0.552,8.399,2.969
		c4.771,5,9.151,10.317,13.063,16.014c10.672,15.545,17.674,32.606,21.029,51.152C365.996,83.587,366.659,91.196,366.688,98.886z"/>
	<path fill-rule="evenodd" clip-rule="evenodd" fill="#FFFFFF" d="M331.261,98.79c-0.553,25.355-9.226,47.404-26.887,65.776
		c-3.058,3.181-7.684,3.74-11.342,1.488c-4.049-2.492-5.898-6.977-4.387-11.158c0.477-1.32,1.354-2.593,2.328-3.62
		c9.964-10.51,16.784-22.741,19.642-36.946c4.989-24.808-1.154-46.775-17.555-65.949c-0.742-0.868-1.544-1.685-2.341-2.504
		c-2.697-2.776-3.449-6.502-1.893-10.025c1.701-3.854,6.136-6.982,11.246-5.711c1.612,0.402,2.95,1.242,4.109,2.429
		c12.583,12.89,20.773,28.166,24.781,45.699C330.504,85.008,331.241,91.851,331.261,98.79z"/>
	<path fill-rule="evenodd" clip-rule="evenodd" fill="#FFFFFF" d="M214.493,117.737c-10.299,0.053-18.8-8.362-18.835-18.646
		c-0.035-10.438,8.243-18.807,18.682-18.887c10.349-0.08,18.825,8.254,18.873,18.556
		C233.259,109.265,224.957,117.684,214.493,117.737z"/>
</g>
</svg>
